<?xml version="1.0" standalone="no"?>
<!DOCTYPE svg PUBLIC "-//W3C//DTD SVG 20010904//EN"
 "http://www.w3.org/TR/2001/REC-SVG-20010904/DTD/svg10.dtd">
<svg version="1.0" xmlns="http://www.w3.org/2000/svg"
 width="606.000000pt" height="205.000000pt" viewBox="0 0 606.000000 205.000000"
 preserveAspectRatio="xMidYMid meet">

<g transform="translate(0.000000,205.000000) scale(0.100000,-0.100000)"
fill="#000000" stroke="none">
<path d="M4517 1872 c-25 -28 -54 -112 -107 -309 -54 -201 -86 -273 -203 -448
-187 -282 -367 -427 -532 -428 -227 -2 -346 269 -345 786 0 89 5 207 10 261 9
95 8 117 -7 103 -9 -9 -453 -1667 -453 -1691 0 -13 3 -17 10 -10 5 5 100 347
210 759 110 413 204 759 210 770 5 13 7 -11 3 -70 -6 -110 12 -394 33 -507 40
-217 113 -351 219 -399 58 -27 164 -25 235 4 157 65 329 246 483 509 28 48 52
86 53 85 1 -1 -11 -56 -27 -122 -33 -134 -163 -711 -205 -908 -24 -112 -26
-153 -9 -135 3 3 46 185 94 404 152 678 198 864 243 966 82 187 135 376 110
391 -5 4 -16 -1 -25 -11z m-2 -120 c-24 -80 -76 -214 -82 -208 -5 5 12 68 60
221 23 75 32 93 35 72 2 -15 -4 -53 -13 -85z"/>
<path d="M995 1823 c-277 -17 -574 -85 -760 -172 -86 -41 -121 -71 -112 -96 7
-17 67 -21 67 -5 0 6 -9 10 -19 10 -35 0 -32 19 6 43 101 64 307 127 548 169
176 30 590 33 725 5 224 -47 318 -154 275 -312 -87 -321 -656 -657 -1270 -750
-132 -20 -125 -21 -115 18 28 106 204 757 224 830 18 62 21 87 12 87 -7 0 -39
-106 -84 -277 -166 -632 -176 -667 -203 -675 -13 -4 -77 -10 -141 -14 -72 -4
-118 -10 -118 -17 0 -7 43 -8 135 -3 74 3 135 3 135 -1 0 -8 -126 -477 -135
-500 -2 -7 1 -13 9 -13 8 0 36 89 82 263 66 252 70 262 93 262 21 0 27 -7 37
-50 25 -96 83 -196 158 -271 84 -84 169 -133 291 -170 76 -22 115 -27 251 -31
142 -5 317 7 332 22 15 14 -16 16 -95 4 -122 -17 -320 -15 -418 6 -181 38
-322 126 -410 256 -49 72 -84 156 -88 214 l-2 29 100 17 c312 53 628 174 865
330 137 90 295 250 344 349 65 133 59 234 -21 314 -73 73 -191 109 -414 126
-129 10 -175 10 -284 3z"/>
<path d="M4807 1563 c-4 -3 -7 -14 -7 -23 0 -14 -175 -622 -195 -677 -2 -7 0
-13 4 -13 5 0 35 46 66 103 101 181 205 326 205 286 0 -8 -11 -64 -25 -124
-23 -104 -32 -224 -19 -259 4 -9 18 -16 34 -16 35 0 88 57 130 139 42 85 37
100 -6 19 -41 -77 -98 -141 -123 -136 -25 5 -25 89 -1 204 31 144 36 204 17
204 -23 0 -66 -55 -147 -186 -41 -65 -77 -123 -82 -128 -4 -6 1 24 13 65 34
124 147 513 154 532 7 17 -5 24 -18 10z"/>
<path d="M4540 1270 c-8 -5 -11 -12 -8 -16 10 -9 38 3 38 16 0 12 -10 13 -30
0z"/>
<path d="M5120 1270 c-8 -5 -11 -12 -8 -16 10 -9 38 3 38 16 0 12 -10 13 -30
0z"/>
<path d="M2503 1158 c-65 -132 -140 -238 -187 -263 -34 -18 -37 -18 -53 -3
-15 15 -15 25 -5 77 6 33 26 99 45 146 19 47 31 88 26 91 -18 11 -89 -210 -89
-275 0 -77 50 -82 119 -13 39 39 158 220 174 266 11 29 14 -8 7 -89 -4 -53
-12 -91 -19 -93 -29 -10 -132 -86 -191 -142 l-65 -62 70 60 c75 64 183 137
192 129 8 -9 -27 -178 -53 -256 -31 -93 -65 -150 -114 -195 -100 -90 -242 -65
-216 38 3 13 8 32 11 43 3 10 -1 5 -9 -12 -47 -96 20 -166 131 -136 140 38
231 203 278 502 5 34 9 38 50 48 24 6 53 11 64 11 12 0 21 5 21 10 0 14 -41
12 -88 -4 l-40 -14 5 119 c4 76 2 119 -4 119 -6 0 -33 -46 -60 -102z"/>
<path d="M2103 1220 c-63 -38 -84 -127 -47 -191 l19 -33 -43 -40 c-48 -44 -82
-102 -82 -140 0 -31 43 -66 81 -66 34 0 87 43 105 87 19 45 17 82 -6 128 -15
30 -17 41 -7 48 8 6 7 7 -5 4 -37 -12 -73 68 -57 127 13 47 63 88 103 84 27
-3 31 -6 30 -33 -1 -16 -5 -41 -9 -55 -6 -24 -6 -24 9 -6 19 23 21 77 4 94
-18 18 -59 15 -95 -8z m23 -307 c8 -43 -1 -75 -31 -111 -41 -48 -104 -47 -126
2 -15 33 18 102 73 152 l41 37 18 -24 c10 -13 21 -39 25 -56z"/>
<path d="M5470 1230 c0 -5 -12 -10 -26 -10 -42 0 -91 -29 -136 -79 -45 -51
-128 -211 -128 -248 0 -55 44 -14 199 187 41 52 78 99 82 105 5 5 9 -30 9 -80
l-1 -90 -54 -34 c-30 -19 -78 -60 -107 -90 l-53 -56 50 46 c59 55 133 109 150
109 25 0 -18 -226 -63 -330 -33 -75 -76 -125 -133 -154 -59 -29 -96 -33 -123
-13 -16 11 -18 24 -14 71 3 38 2 52 -4 41 -5 -9 -10 -36 -11 -60 -3 -59 19
-81 77 -78 89 3 175 74 226 187 35 78 48 126 69 256 l17 105 52 9 c29 5 52 14
52 19 0 10 -61 4 -92 -8 -17 -7 -17 -1 -11 71 3 44 11 82 17 86 6 4 4 14 -8
27 -20 23 -36 27 -36 11z m-51 -77 c-54 -80 -155 -206 -194 -243 -35 -33 -37
-34 -30 -10 16 55 80 172 118 216 45 51 92 84 120 84 15 0 13 -7 -14 -47z"/>
<path d="M4500 1143 c-27 -91 -44 -195 -36 -226 18 -75 125 -16 171 96 22 53
10 46 -19 -11 -33 -66 -73 -104 -105 -100 -23 3 -26 8 -29 52 -3 42 25 166 53
239 4 9 3 17 -3 17 -6 0 -20 -30 -32 -67z"/>
<path d="M5080 1143 c-27 -91 -44 -195 -36 -226 18 -75 125 -16 171 96 22 53
10 46 -19 -11 -33 -66 -73 -104 -105 -100 -23 3 -26 8 -29 52 -3 42 25 166 53
239 4 9 3 17 -3 17 -6 0 -20 -30 -32 -67z"/>
<path d="M1871 1174 c-70 -59 -59 -194 16 -194 l23 0 -26 -40 c-29 -43 -65
-60 -89 -40 -17 14 -20 76 -5 116 12 29 6 44 -11 27 -6 -6 -13 -38 -16 -71 -5
-52 -3 -62 16 -81 11 -11 28 -21 36 -21 21 0 81 56 95 89 6 16 25 35 41 41 15
7 34 19 41 28 10 12 6 11 -15 -3 -35 -23 -41 -16 -28 32 17 58 14 108 -7 126
-25 23 -35 21 -71 -9z m70 -15 c21 -39 -14 -169 -45 -169 -28 0 -56 38 -56 76
0 82 71 148 101 93z"/>
<path d="M5711 1174 c-70 -59 -59 -194 16 -194 l23 0 -26 -40 c-29 -43 -65
-60 -89 -40 -17 14 -20 76 -5 116 12 29 6 44 -11 27 -6 -6 -13 -38 -16 -71 -5
-52 -3 -62 16 -81 11 -11 28 -21 36 -21 21 0 81 56 95 89 6 16 25 35 41 41 15
7 34 19 41 28 10 12 6 11 -15 -3 -35 -23 -41 -16 -28 32 17 58 14 108 -7 126
-25 23 -35 21 -71 -9z m70 -15 c21 -39 -14 -169 -45 -169 -28 0 -56 38 -56 76
0 82 71 148 101 93z"/>
<path d="M2178 1033 c7 -3 16 -2 19 1 4 3 -2 6 -13 5 -11 0 -14 -3 -6 -6z"/>
<path d="M5234 808 l-19 -23 23 19 c12 11 22 21 22 23 0 8 -8 2 -26 -19z"/>
<path d="M2239 763 l-24 -28 28 24 c25 23 32 31 24 31 -2 0 -14 -12 -28 -27z"/>
<path d="M5150 679 c-12 -23 -20 -43 -18 -45 3 -2 14 17 26 41 27 56 20 60 -8
4z"/>
<path d="M2180 680 c-6 -11 -8 -20 -6 -20 3 0 10 9 16 20 6 11 8 20 6 20 -3 0
-10 -9 -16 -20z"/>
</g>
</svg>
